<svg id="Layer_1" data-name="Layer 1" xmlns="http://www.w3.org/2000/svg" viewBox="0 0 80 80"><defs><style>.cls-1{fill:#ffc200;}.cls-2{fill:#fff;}</style></defs><circle class="cls-1" cx="40" cy="40" r="28.11"/><path class="cls-2" d="M49.61,40.63V53.06c0,.82-.35,1.16-1.17,1.16H31.55c-.81,0-1.16-.35-1.16-1.14q0-12.4,0-24.8a2.72,2.72,0,0,1,2.85-2.86H46.76a2.71,2.71,0,0,1,2.84,2.84Q49.61,34.46,49.61,40.63Zm-2-.51V28.41c0-.71-.29-1-1-1q-6.69,0-13.38,0a.84.84,0,0,0-1,1V52c0,.25.09.32.33.31,1,0,2.07,0,3.11,0,.27,0,.36-.07.36-.36,0-1.43,0-2.87,0-4.31a1,1,0,0,1,1.08-1.09h5.54a1,1,0,0,1,1.08,1.09c0,1.45,0,2.89,0,4.34,0,.25.08.33.33.33,1,0,2,0,3,0,.42,0,.42,0,.42-.43ZM41.9,50.39c0-.54,0-1.09,0-1.64,0-.21-.06-.29-.28-.28H38.36c-.2,0-.26.07-.26.26q0,1.64,0,3.27c0,.19.06.26.26.26h3.26c.22,0,.28-.07.28-.28C41.89,51.45,41.9,50.92,41.9,50.39Z"/><path class="cls-2" d="M35.19,31.18c0-.33,0-.66,0-1a1,1,0,0,1,2,0q0,1,0,2a1,1,0,0,1-2,0C35.18,31.84,35.19,31.51,35.19,31.18Z"/><path class="cls-2" d="M42.86,31.18c0-.33,0-.66,0-1a.93.93,0,0,1,1-.93.94.94,0,0,1,1,.94q0,1,0,2a.94.94,0,0,1-1,1,1,1,0,0,1-1-1Q42.85,31.67,42.86,31.18Z"/><path class="cls-2" d="M35.19,36.93c0-.33,0-.66,0-1a1,1,0,0,1,2,0q0,1,0,2a.93.93,0,0,1-1,.91,1,1,0,0,1-1-.94C35.18,37.61,35.19,37.27,35.19,36.93Z"/><path class="cls-2" d="M44.81,37c0,.33,0,.66,0,1a.94.94,0,0,1-1,.94,1,1,0,0,1-1-.93q0-1,0-2a1,1,0,0,1,2,0C44.82,36.27,44.81,36.61,44.81,37Z"/><path class="cls-2" d="M35.19,42.71c0-.33,0-.66,0-1a1,1,0,0,1,2,0q0,1,0,2a.94.94,0,0,1-1,.94,1,1,0,0,1-1-.94C35.18,43.36,35.19,43,35.19,42.71Z"/><path class="cls-2" d="M44.81,42.7c0,.32,0,.65,0,1a.94.94,0,0,1-1,1,1,1,0,0,1-1-1q0-1,0-2a.93.93,0,0,1,1-1,1,1,0,0,1,1,1C44.82,42.06,44.81,42.38,44.81,42.7Z"/></svg>