<svg id="Layer_1" data-name="Layer 1" xmlns="http://www.w3.org/2000/svg" viewBox="0 0 700 700"><defs><style>.cls-1{fill:#2b2b2b;}.cls-2{fill:#fff;}</style></defs><rect class="cls-1" width="700" height="700" rx="99.29"/><path class="cls-2" d="M549.57,309.54V413.46L359.7,266.16a15.82,15.82,0,0,0-19.4,0L150.43,413.46V309.54L310.67,185.23a64.15,64.15,0,0,1,78.66,0Z"/><path class="cls-2" d="M473,391v77.53a59.71,59.71,0,0,1-59.7,59.7H287.19a59.71,59.71,0,0,1-59.7-59.7V391h82.1v42.34a12.81,12.81,0,0,0,12.79,12.78h55.71a12.81,12.81,0,0,0,12.79-12.78V391Z"/></svg>