<svg id="Layer_1" data-name="Layer 1" xmlns="http://www.w3.org/2000/svg" viewBox="0 0 700 240"><defs><style>.cls-1,.cls-2{fill:#fff;}.cls-2{font-size:85.16px;font-family:RussoOne-Regular, Russo One;}</style></defs><path class="cls-1" d="M217.27,106V142L151.6,91a5.48,5.48,0,0,0-6.71,0L79.22,142V106l55.42-43a22.2,22.2,0,0,1,27.21,0Z"/><path class="cls-1" d="M190.78,134.18V161a20.66,20.66,0,0,1-20.65,20.65H126.52A20.66,20.66,0,0,1,105.87,161V134.18h28.4v14.65a4.43,4.43,0,0,0,4.42,4.42H158a4.43,4.43,0,0,0,4.42-4.42V134.18Z"/><text class="cls-2" transform="translate(256.72 153.02)">HomHub</text></svg>