<svg id="Layer_1" data-name="Layer 1" xmlns="http://www.w3.org/2000/svg" viewBox="0 0 371.29 371.29"><defs><style>.cls-1{fill:#fff;}.cls-2{fill:#ffc200;}.cls-3{fill:#2d2d2d;}</style></defs><rect class="cls-1" width="371.29" height="371.29" rx="32.77"/><path class="cls-2" d="M289.18,107.51S251.86,289.57,141.25,304.1c-99.74-50-75.34-234.21-75.34-234.21,85.59,6.64,117.7-17.2,117.7-17.2S206.15,85.74,289.18,107.51Z"/><polygon class="cls-3" points="236.86 139.43 178.75 180.78 157.4 150.79 136.03 166 157.37 195.99 172.58 217.36 252.07 160.8 236.86 139.43"/><path class="cls-3" d="M162.2,318.6,161,318c-42.2-21.15-69-69.33-77.54-139.35-6.36-52.27-.32-99-.26-99.5l.57-4.25,4.27.33c82.4,6.39,114.36-16.1,114.67-16.33l3.77-2.75L209.09,60c.21.3,23,32,103,53l4.14,1.09-.86,4.2a446.15,446.15,0,0,1-32.85,93.93c-31,63.35-72.12,100.09-118.92,106.24Zm-70.54-234c-2.77,27.46-14,180.07,72.12,224.71,96-14,135.39-161.83,141.77-188.67-66.09-18.06-93.17-43.08-101.2-52.12C193.8,74.38,160,89.14,91.66,84.55Z"/></svg>