<svg id="Layer_1" data-name="Layer 1" xmlns="http://www.w3.org/2000/svg" viewBox="0 0 80 80"><defs><style>.cls-1{fill:#2b2b2b;opacity:0.2;}.cls-2{fill:#fff;}</style></defs><circle class="cls-1" cx="40" cy="40" r="28.11"/><path class="cls-2" d="M40,51.46H25.87a1,1,0,0,1-1.13-1.09,1,1,0,0,1,1-1h.64c.42,0,.42,0,.42-.44V30.06a2.23,2.23,0,0,1,1.56-2.32l14.52-6a2.24,2.24,0,0,1,2.94.84,2.14,2.14,0,0,1,.32,1.21v6.85c0,.44,0,.44.43.44h5.39a2.2,2.2,0,0,1,2.31,2.32q0,7.76,0,15.51c0,.27,0,.44.34.52a1,1,0,0,1,.67,1.16,1,1,0,0,1-1,.84H40Zm4-14.92V24.17c0-.11,0-.21,0-.32s-.1-.22-.25-.18a1.25,1.25,0,0,0-.27.1L29.25,29.63a.56.56,0,0,0-.41.61q0,9.36,0,18.72c0,.42,0,.42.41.42H43.6c.44,0,.44,0,.44-.43Zm2.07,4.73c0,2.58,0,5.16,0,7.74,0,.28.07.38.37.38,1.77,0,3.53,0,5.3,0,.31,0,.39-.1.39-.4q0-7.68,0-15.36c0-.42,0-.45-.45-.45-1.73,0-3.47,0-5.2,0-.33,0-.41.1-.4.42C46.12,36.15,46.11,38.71,46.11,41.27Z"/><path class="cls-2" d="M36.43,34.19c-.82,0-1.65,0-2.47,0a1,1,0,1,1,0-2.07h5a1,1,0,0,1,1.08,1,1,1,0,0,1-1.08,1C38.1,34.2,37.27,34.19,36.43,34.19Z"/><path class="cls-2" d="M36.41,38.26H34a1,1,0,1,1,0-2.07h5a1,1,0,1,1,0,2.07Z"/><path class="cls-2" d="M36.43,42.32H34a1,1,0,1,1,0-2.08h5a1,1,0,1,1,0,2.08Z"/><path class="cls-2" d="M36.43,46.38H34a1,1,0,0,1-1.08-1,1,1,0,0,1,1.07-1q2.51,0,5,0a1,1,0,1,1,0,2.07Z"/></svg>