<svg id="Layer_1" data-name="Layer 1" xmlns="http://www.w3.org/2000/svg" viewBox="0 0 80 80"><defs><style>.cls-1{fill:#ffc200;}.cls-2{fill:#fff;}</style></defs><circle class="cls-1" cx="40" cy="40" r="28.11"/><path class="cls-2" d="M53.55,37.87a1,1,0,0,1-1.6.83,2.7,2.7,0,0,1-.31-.28Q46,32.75,40.31,27.09c-.3-.31-.31-.31-.62,0L28.32,38.47a1.14,1.14,0,0,1-.89.43.89.89,0,0,1-.85-.52.94.94,0,0,1,.05-1,2.7,2.7,0,0,1,.28-.31C31,33,35.06,28.9,39.12,24.81a1.14,1.14,0,0,1,1.76,0Q47,30.94,53.12,37.05A1.1,1.1,0,0,1,53.55,37.87Z"/><path class="cls-2" d="M40,51.46H34.18a4.81,4.81,0,0,1-4.82-4.81V40.86a1,1,0,1,1,2,0c0,1.9,0,3.79,0,5.68a2.92,2.92,0,0,0,0,.51,2.84,2.84,0,0,0,2.82,2.45q5.8,0,11.61,0a2.86,2.86,0,0,0,2.86-2.9c0-1.92,0-3.84,0-5.76a.94.94,0,0,1,.8-1,1,1,0,0,1,1.12.66,1.21,1.21,0,0,1,0,.42v5.85a4.84,4.84,0,0,1-4,4.62,4.76,4.76,0,0,1-.84.07Z"/></svg>