<svg id="Layer_1" data-name="Layer 1" xmlns="http://www.w3.org/2000/svg" viewBox="0 0 80 80"><defs><style>.cls-1{fill:#ffc200;}.cls-2{fill:#fff;}</style></defs><circle class="cls-1" cx="40" cy="40" r="28.11"/><path class="cls-2" d="M40,54.44H26.65a1,1,0,0,1-1.09-1,1,1,0,0,1,.93-1h.75c.18,0,.26-.06.25-.24a1.47,1.47,0,0,1,0-.21c0-4.43,0-8.85,0-13.28a.72.72,0,0,0-.29-.63,4.2,4.2,0,0,1-1.64-3.42c0-.76,0-1.52,0-2.28a1.41,1.41,0,0,1,.16-.67c.75-1.51,1.49-3,2.27-4.53a2.82,2.82,0,0,1,2.69-1.65H49.32A2.82,2.82,0,0,1,52,27.2c.78,1.53,1.53,3.07,2.29,4.6a1.27,1.27,0,0,1,.14.61c0,.76,0,1.52,0,2.28a4.28,4.28,0,0,1-1.68,3.46.57.57,0,0,0-.25.5q0,6.74,0,13.46c0,.29.08.4.37.37a4.87,4.87,0,0,1,.54,0,1,1,0,1,1,0,2H40Zm10.57-8.67v-6.4c0-.22,0-.34-.29-.3a1.48,1.48,0,0,1-.21,0,4.25,4.25,0,0,1-3.13-1.36c-.16-.18-.24-.16-.39,0a4.33,4.33,0,0,1-6.32,0c-.17-.17-.24-.18-.41,0a4.34,4.34,0,0,1-6.3,0c-.21-.22-.29-.16-.46,0a4.18,4.18,0,0,1-3.3,1.36c-.27,0-.29.09-.29.31q0,6.36,0,12.73c0,.26.08.34.34.34h5c.28,0,.35-.09.35-.36,0-1.77,0-3.55,0-5.32a2.89,2.89,0,0,1,3-3h3.72a2.89,2.89,0,0,1,3,3c0,1.79,0,3.57,0,5.35,0,.27.07.36.35.36h5c.29,0,.37-.09.37-.38Q50.54,48.94,50.55,45.77ZM40,31.33h11.5c.37,0,.37,0,.21-.34-.47-.94-1-1.87-1.41-2.82a1,1,0,0,0-1-.64H30.75a1,1,0,0,0-1,.64c-.45.94-.93,1.86-1.39,2.79-.19.37-.19.37.22.37ZM42.86,49.5V46.89a1,1,0,0,0-1.09-1.1H38.23a1,1,0,0,0-1.09,1.07c0,1.77,0,3.54,0,5.31,0,.25.09.31.32.31h5.1c.26,0,.32-.1.32-.34C42.86,51.26,42.86,50.38,42.86,49.5ZM29.93,33.29H27.8c-.18,0-.28,0-.27.25,0,.51,0,1,0,1.53a2.36,2.36,0,0,0,4.67,0c.07-.5,0-1,0-1.5,0-.23-.08-.29-.29-.29Zm6.71,0h-2.1c-.17,0-.3,0-.29.24,0,.51,0,1,0,1.53a2.36,2.36,0,0,0,4.67,0c.07-.49,0-1,.05-1.47,0-.25-.09-.3-.32-.3Zm6.73,0h-2.1c-.17,0-.3,0-.29.24,0,.51,0,1,.05,1.53a2.36,2.36,0,0,0,4.67,0c.07-.49,0-1,0-1.47,0-.24-.09-.3-.32-.3Zm6.75,0H48c-.17,0-.29,0-.28.24,0,.51,0,1,0,1.53a2.36,2.36,0,0,0,4.68,0c.06-.49,0-1,0-1.47,0-.24-.09-.3-.32-.3Z"/></svg>