<svg id="Layer_1" data-name="Layer 1" xmlns="http://www.w3.org/2000/svg" viewBox="0 0 300 300"><defs><style>.cls-1{fill:#ffc200;}.cls-2{fill:#232323;}</style></defs><path class="cls-1" d="M215.71,211.15a4.13,4.13,0,0,1-3.89,3.36H98.56c-2.78,0-4.57-1.76-4.49-4.34A4,4,0,0,1,98,206.25c.84,0,1.67,0,2.51,0,1.7,0,1.7,0,1.72-1.76v-75.3c0-4.72,1.82-7.43,6.21-9.24l57.9-23.85c4.8-2,9.33-.67,11.74,3.33a9.1,9.1,0,0,1,1.27,4.83q0,13.65,0,27.33c0,1.75,0,1.75,1.7,1.76h21.52c5.47,0,9.19,3.73,9.19,9.22q0,30.94,0,61.89c0,1.06.11,1.72,1.36,2.06A4,4,0,0,1,215.71,211.15Z"/><path class="cls-2" d="M218,227.43H106.27a7.14,7.14,0,0,1-5.2-2.07,6.66,6.66,0,0,1,4.48-11.19c.62,0,1.24,0,1.84,0V139.58c0-5.69,2.47-9.36,7.76-11.54q22.2-9.16,44.4-18.29l13.5-5.56c6-2.45,11.78-.74,14.83,4.35a11.58,11.58,0,0,1,1.64,6.12q0,9.11,0,18.21V142h-5v-9.12q0-9.12,0-18.22a6.61,6.61,0,0,0-.92-3.53c-1.77-2.94-5-3.8-8.64-2.31l-13.51,5.56-44.39,18.29c-3.45,1.42-4.67,3.23-4.67,6.92v75.31c0,3.15-1.13,4.26-4.21,4.26h-.75c-.54,0-1.08,0-1.62,0a1.52,1.52,0,0,0-1.53,1.52,1.68,1.68,0,0,0,.39,1.22,2.24,2.24,0,0,0,1.62.53H218c.48,0,1,0,1.43,0a1.61,1.61,0,0,0,1.51-1.27,1.58,1.58,0,0,0-.87-1.81,4.16,4.16,0,0,1-3.18-4.48V202.29h5v12.38a6.63,6.63,0,0,1-2.27,12.74C219.09,227.43,218.54,227.43,218,227.43Z"/><path d="M237.58,92.51c2.36,1.4,2.82,3,1.58,5.46l-28.74,57.6c-.63,1.26-.63,1.27.63,1.89s2.8,1.38,4.18,2.1a9.93,9.93,0,0,1,4.53,13.75c-1.33,2.72-1.33,2.72-4,1.37l-31.22-15.63c-1.35-.67-1.32-.66-.7-2,1.12-2.36,2.42-4.55,4.82-5.85a9.81,9.81,0,0,1,9.29-.29c1.58.74,3.15,1.5,4.67,2.34.86.49,1.24.38,1.7-.54q11-22.15,22.09-44.28c2.24-4.47,4.5-8.94,6.7-13.43a5,5,0,0,1,2.31-2.49Z"/><path d="M214.79,182.68a97.27,97.27,0,0,1-13.72,16.82c-1.2,1.21-2.44,2.38-3.68,3.55a3.2,3.2,0,0,1-2.45,1,3.69,3.69,0,0,1-2-.56q-6.81-3.4-13.62-6.81a4.3,4.3,0,0,1-1.76-1.44h0c0-2.21,2.5-4.08,4.55-5.23l-5.89,2.81a15.11,15.11,0,0,1-7.49-1.47c-5.34-2.61-10.65-5.29-16-8a3.34,3.34,0,0,1-1.62-4.75,3.29,3.29,0,0,1,2.51-1.71,56.81,56.81,0,0,0,17.11-5.5,27.06,27.06,0,0,0,8.68-6.78,1,1,0,0,1,1.47-.31q16.76,8.43,33.54,16.82C215.44,181.57,215.21,182,214.79,182.68Z"/><path d="M184.69,188.74l-2.5,1.19A22.34,22.34,0,0,1,184.69,188.74Z"/><path class="cls-2" d="M42.65,100.46c.76-.91,1.79-.95,2.88-1,8.43-.71,15.65-3.78,20.71-10.9a27.23,27.23,0,0,0,4.55-12.47,52.07,52.07,0,0,0,.39-5.29c0-1.19.69-2,1.64-2s1.73.77,1.75,2a35.51,35.51,0,0,0,2.25,12.75c2.83,7.21,8.11,11.84,15.35,14.33a28.84,28.84,0,0,0,8.88,1.61,2.05,2.05,0,0,1,2,.92c.71,1.26-.15,2.56-1.72,2.64a32.93,32.93,0,0,0-8.53,1.51c-9.85,3.24-15.57,10.07-17.46,20.19a35.34,35.34,0,0,0-.6,6.33c0,1.86-.58,2.7-1.77,2.69s-1.73-.84-1.75-2.73a32.4,32.4,0,0,0-2.75-13.31,23.23,23.23,0,0,0-10.21-11A30.83,30.83,0,0,0,44.8,103a2.43,2.43,0,0,1-2.15-1.23ZM73,119.55c3.19-9.21,9.59-15,18.8-18.22-9.24-3.2-15.63-9-18.81-18.52a27.84,27.84,0,0,1-7.1,11.65,31.38,31.38,0,0,1-11.69,6.88C63.4,104.54,69.81,110.35,73,119.55Z"/><path class="cls-2" d="M123.59,61.16c1.12.06,1.73.77,1.77,2.11a20.28,20.28,0,0,0,.9,5.79c1.76,5.37,5.6,8.29,11,9.32a16.92,16.92,0,0,0,2,.22c1.52.09,2.3.69,2.29,1.79s-.77,1.66-2.24,1.74a15.7,15.7,0,0,0-6.48,1.69c-4.52,2.33-6.69,6.21-7.31,11.11-.11.89-.13,1.79-.2,2.69-.09,1.2-.75,1.94-1.74,1.93s-1.53-.65-1.66-1.86a35.91,35.91,0,0,0-.68-5.16c-1.7-6.43-6.75-9.81-12.81-10.37A13.61,13.61,0,0,1,107,82a1.68,1.68,0,0,1-1.37-1.82,1.71,1.71,0,0,1,1.65-1.59A18.79,18.79,0,0,0,114.05,77c4.58-2.18,6.93-5.92,7.74-10.81.21-1.28,0-2.58.34-3.84C122.31,61.58,122.73,61.1,123.59,61.16Zm-8.33,19.1a17,17,0,0,1,8.49,8.41,17.23,17.23,0,0,1,8.33-8.34c-.2-.4-.51-.45-.76-.58a16.76,16.76,0,0,1-7.08-7c-.12-.24-.16-.66-.5-.63s-.35.43-.48.68a16.9,16.9,0,0,1-3.83,4.79A21.39,21.39,0,0,1,115.26,80.26Z"/><path class="cls-2" d="M93.64,137.41c.55,0,1.09.11,1.64.17A13.65,13.65,0,0,1,107.5,149.4c.21,1.31.14,2.63.37,3.93a1.71,1.71,0,0,0,1.61,1.52,1.74,1.74,0,0,0,1.76-1.79c.08-.86.11-1.73.2-2.59.73-7.18,5.3-11.92,12.43-12.89.7-.1,1.41-.11,2.11-.23a1.68,1.68,0,0,0-.08-3.34c-.61-.07-1.22-.11-1.82-.2-4.28-.57-7.88-2.32-10.32-6a16.84,16.84,0,0,1-2.49-9c0-1.47-.67-2.3-1.76-2.33s-1.57.75-1.62,2.3a18.63,18.63,0,0,1-.22,2.79c-.67,4.08-2.42,7.5-6,9.82a16.13,16.13,0,0,1-8,2.46c-1.33.07-2.07.69-2.1,1.79S92.3,137.31,93.64,137.41Zm13.59-6.34a17.17,17.17,0,0,0,2.06-3.14c.19-.35.39-.69.68-.09a16.44,16.44,0,0,0,7.78,7.62c.07,0,.12.12.28.28a17.14,17.14,0,0,0-8.38,8.37,17.06,17.06,0,0,0-8.5-8.43A17.68,17.68,0,0,0,107.23,131.07Z"/><path class="cls-2" d="M101.15,135.68a17.68,17.68,0,0,0,6.08-4.61,17.17,17.17,0,0,0,2.06-3.14c.19-.35.39-.69.68-.09a16.44,16.44,0,0,0,7.78,7.62c.07,0,.12.12.28.28a17.14,17.14,0,0,0-8.38,8.37A17.06,17.06,0,0,0,101.15,135.68Z"/></svg>