<svg id="Layer_1" data-name="Layer 1" xmlns="http://www.w3.org/2000/svg" viewBox="0 0 138.86 138.86"><defs><style>.cls-1{fill:#2b2b2b;}.cls-2{fill:#fff;}</style></defs><circle class="cls-1" cx="69.43" cy="69.43" r="69.43"/><path class="cls-2" d="M69.4,97.73H34.52A2.54,2.54,0,0,1,31.74,95a2.49,2.49,0,0,1,2.4-2.43c.52,0,1,0,1.56,0,1,0,1,0,1.06-1.09V44.88a5.47,5.47,0,0,1,3.85-5.73L76.47,24.38c3-1.22,5.78-.42,7.27,2.06a5.7,5.7,0,0,1,.79,3c0,5.64,0,11.29,0,16.93,0,1.09,0,1.09,1,1.09,4.45,0,8.89,0,13.33,0a5.41,5.41,0,0,1,5.69,5.72q0,19.15,0,38.33c0,.66.07,1.06.84,1.28a2.5,2.5,0,0,1,1.65,2.86,2.54,2.54,0,0,1-2.41,2.08c-.31,0-.63,0-.94,0Zm10-36.84V30.32c0-.26,0-.52,0-.78s-.26-.55-.64-.45a4.38,4.38,0,0,0-.66.24Q60.5,36.57,42.88,43.81a1.37,1.37,0,0,0-1,1.5q0,23.13,0,46.25c0,1,0,1,1,1H78.33c1.07,0,1.07,0,1.07-1.07Zm5.13,11.66c0,6.38,0,12.75,0,19.13,0,.71.18.94.92.94q6.54,0,13.09,0c.77,0,1-.24,1-1q0-19,0-37.94c0-1.05-.07-1.12-1.11-1.12-4.28,0-8.57,0-12.85,0-.82,0-1,.25-1,1C84.54,59.91,84.53,66.23,84.53,72.55Z"/><path class="cls-2" d="M60.62,55.08c-2,0-4.07,0-6.11,0a2.52,2.52,0,0,1-2.7-2.53A2.49,2.49,0,0,1,54.51,50h12.3a2.56,2.56,0,1,1,0,5.12C64.75,55.09,62.68,55.08,60.62,55.08Z"/><path class="cls-2" d="M60.56,65.12h-6a2.53,2.53,0,0,1-2.72-2.59A2.48,2.48,0,0,1,54.49,60h12.3a2.57,2.57,0,1,1,0,5.13Z"/><path class="cls-2" d="M60.6,75.15H54.49a2.51,2.51,0,0,1-2.68-2.55A2.48,2.48,0,0,1,54.46,70q6.18,0,12.37,0a2.52,2.52,0,0,1,2.64,2.59,2.49,2.49,0,0,1-2.6,2.53Z"/><path class="cls-2" d="M60.6,85.19c-2,0-4.07,0-6.11,0a2.56,2.56,0,1,1,0-5.12q6.19,0,12.38,0a2.56,2.56,0,1,1,0,5.12Z"/></svg>