<svg id="Layer_1" data-name="Layer 1" xmlns="http://www.w3.org/2000/svg" viewBox="0 0 138.86 138.86"><defs><style>.cls-1{fill:#2b2b2b;}.cls-2{fill:#fff;}</style></defs><circle class="cls-1" cx="69.43" cy="66.76" r="69.43"/><path class="cls-2" d="M93.16,68.32V99c0,2-.85,2.86-2.88,2.86H48.55c-2,0-2.85-.85-2.85-2.82V37.81a6.7,6.7,0,0,1,7.06-7.06H86.13a6.7,6.7,0,0,1,7,7Q93.17,53,93.16,68.32Zm-4.84-1.27q0-14.46,0-28.92c0-1.76-.69-2.53-2.35-2.53H52.9A2.06,2.06,0,0,0,50.54,38q0,29.14,0,58.29c0,.63.21.8.81.79,2.56,0,5.13,0,7.69,0,.67,0,.9-.17.89-.87,0-3.55,0-7.1,0-10.65a2.38,2.38,0,0,1,2.67-2.7c4.56,0,9.13,0,13.69,0A2.39,2.39,0,0,1,79,85.53c0,3.57,0,7.15,0,10.73,0,.61.19.8.8.79,2.52,0,5,0,7.55,0,1,0,1,0,1-1.06ZM74.11,92.43c0-1.35,0-2.71,0-4.07,0-.5-.15-.7-.68-.69-2.69,0-5.37,0-8.06,0-.49,0-.64.19-.64.66,0,2.69,0,5.37,0,8.06,0,.47.15.66.64.66,2.69,0,5.37,0,8.06,0,.53,0,.69-.19.68-.7C74.1,95.05,74.11,93.74,74.11,92.43Z"/><path class="cls-2" d="M57.54,45c0-.81,0-1.62,0-2.44a2.41,2.41,0,0,1,4.82,0c0,1.62,0,3.25,0,4.88A2.34,2.34,0,0,1,60,49.79a2.38,2.38,0,0,1-2.41-2.38C57.53,46.6,57.54,45.79,57.54,45Z"/><path class="cls-2" d="M76.48,45c0-.81,0-1.63,0-2.44a2.41,2.41,0,0,1,4.82,0c0,1.63,0,3.25,0,4.88a2.33,2.33,0,0,1-2.42,2.35,2.38,2.38,0,0,1-2.41-2.38C76.47,46.6,76.48,45.78,76.48,45Z"/><path class="cls-2" d="M57.54,59.16c0-.81,0-1.62,0-2.43a2.41,2.41,0,0,1,4.81,0c0,1.68,0,3.35,0,5A2.32,2.32,0,0,1,59.94,64a2.37,2.37,0,0,1-2.39-2.32C57.52,60.84,57.54,60,57.54,59.16Z"/><path class="cls-2" d="M81.31,59.22c0,.81,0,1.62,0,2.43a2.41,2.41,0,0,1-4.82,0q0-2.48,0-5a2.41,2.41,0,0,1,4.82,0C81.34,57.54,81.31,58.38,81.31,59.22Z"/><path class="cls-2" d="M57.54,73.44c0-.81,0-1.63,0-2.44a2.42,2.42,0,0,1,4.83,0c0,1.62,0,3.25,0,4.88a2.33,2.33,0,0,1-2.44,2.33,2.37,2.37,0,0,1-2.38-2.32C57.52,75.07,57.54,74.25,57.54,73.44Z"/><path class="cls-2" d="M81.32,73.41c0,.82,0,1.63,0,2.44a2.41,2.41,0,0,1-4.82,0c0-1.6,0-3.21,0-4.81a2.32,2.32,0,0,1,2.39-2.38,2.35,2.35,0,0,1,2.43,2.42C81.33,71.84,81.32,72.63,81.32,73.41Z"/></svg>