<svg id="Layer_1" data-name="Layer 1" xmlns="http://www.w3.org/2000/svg" viewBox="0 0 300 300"><defs><style>.cls-1{fill:#ffc200;}.cls-2{fill:#232323;}</style></defs><path class="cls-1" d="M166.92,188.18C129.54,192.85,56.2,198.92,56.2,198.92V173.77a7.92,7.92,0,0,1,1.1-.07,6.89,6.89,0,0,1,5.51,2.76,3.39,3.39,0,0,0,4.24,1.11,27.36,27.36,0,0,0,6.69-3.95A3.46,3.46,0,0,0,75,169.18a6.61,6.61,0,0,1-.25-4.05,6.89,6.89,0,0,1,6-5.36,3.37,3.37,0,0,0,2.87-2.61,24.07,24.07,0,0,0,0-9.64,3.34,3.34,0,0,0-2.82-2.73,7,7,0,0,1-5.57-9.41,3.26,3.26,0,0,0,.24-1.27,3.38,3.38,0,0,0-1.26-2.66A26.85,26.85,0,0,0,66.62,127a3.46,3.46,0,0,0-4.38,1.11,7,7,0,0,1-6,2.46v-15a3.73,3.73,0,0,1,4-3.72l11,.88h0c33.81,2.74,113.73,9.79,126.93,16.06C215,136.79,204.29,183.51,166.92,188.18Z"/><path class="cls-1" d="M56.8,161.38l-.6,0V143.43a6.6,6.6,0,0,1,.77,0,8.83,8.83,0,0,1,8.88,8.91A9,9,0,0,1,56.8,161.38Z"/><path class="cls-1" d="M106.65,144.73c-6.54,42.05-50.45,54.19-50.45,54.19V173.77a7.92,7.92,0,0,1,1.1-.07,6.89,6.89,0,0,1,5.51,2.76,3.39,3.39,0,0,0,4.24,1.11,27.36,27.36,0,0,0,6.69-3.95A3.46,3.46,0,0,0,75,169.18a6.61,6.61,0,0,1-.25-4.05,6.89,6.89,0,0,1,6-5.36,3.37,3.37,0,0,0,2.87-2.61,24.07,24.07,0,0,0,0-9.64,3.34,3.34,0,0,0-2.82-2.73,7,7,0,0,1-5.57-9.41,3.26,3.26,0,0,0,.24-1.27,3.38,3.38,0,0,0-1.26-2.66A26.85,26.85,0,0,0,66.62,127a3.46,3.46,0,0,0-4.38,1.11,7,7,0,0,1-6,2.46V115.83a4.15,4.15,0,0,1,1.9-3.49,4.05,4.05,0,0,1,2.46-.66,107.14,107.14,0,0,1,10.71,1.07h0C87.34,115.17,110,122.5,106.65,144.73Z"/><polygon class="cls-1" points="56.2 124.68 56.2 181.82 70.98 183.5 92.83 152.39 89.45 135.28 83.83 127.13 72.91 123.39 56.2 124.68"/><path class="cls-2" d="M61.56,211.42V183.55h5V206c13.6-1.15,75.06-6.4,107.9-10.51a40.7,40.7,0,0,0,25.84-13.62l3.75,3.31a45.73,45.73,0,0,1-29,15.28c-37,4.62-110.08,10.69-110.82,10.75Z"/><path class="cls-2" d="M158.83,132.73c-28.37-3.38-62.23-6.28-79.89-7.71l-.42,0c-4.47-.36-8.1-.65-10.64-.84a1.19,1.19,0,0,0-.69.15,1.23,1.23,0,0,0-.63,1.08v4.41h-5v-4.41A6.23,6.23,0,0,1,64.72,120a6.15,6.15,0,0,1,3.54-.8l11,.87.52,0c17.8,1.44,51.43,4.33,79.67,7.69Z"/><path class="cls-2" d="M61.56,212V125.6a6.62,6.62,0,0,1,3-5.58,6.53,6.53,0,0,1,4-1.06c2.47.12,6.33.41,10.76,1.06h.34l.18.08c10.74,1.65,19.38,4.65,25.68,8.92,9.13,6.18,13.1,15.13,11.47,25.86C110.27,198,65.18,211,64.72,211.11Zm6.64-88a1.65,1.65,0,0,0-1.64,1.65v79.61c10-3.71,40.28-17.66,45.48-51.08,1.35-8.94-1.7-15.8-9.33-21-5.66-3.83-13.94-6.66-23.94-8.16l-.09,0c-4.27-.63-8-.91-10.39-1Z"/><path class="cls-2" d="M257.35,137.33c-1,1.23-2.43,1.28-3.9,1.41-11.4,1-21.17,5.12-28,14.74a36.93,36.93,0,0,0-6.16,16.88,68.35,68.35,0,0,0-.52,7.15c0,1.61-.94,2.69-2.23,2.71s-2.33-1.05-2.35-2.74a48.55,48.55,0,0,0-3.05-17.25c-3.84-9.75-11-16-20.77-19.37a38.44,38.44,0,0,0-12-2.18,2.81,2.81,0,0,1-2.7-1.25c-.95-1.7.2-3.46,2.34-3.57a44.26,44.26,0,0,0,11.52-2.05c13.33-4.38,21.07-13.61,23.63-27.31a48.1,48.1,0,0,0,.81-8.56c0-2.51.78-3.65,2.4-3.63s2.34,1.12,2.36,3.68a44.1,44.1,0,0,0,3.72,18,31.47,31.47,0,0,0,13.81,14.84,41.65,41.65,0,0,0,18.21,5,3.27,3.27,0,0,1,2.91,1.66Zm-41-25.82c-4.31,12.46-13,20.32-25.44,24.64,12.51,4.34,21.15,12.22,25.44,25.06a37.66,37.66,0,0,1,9.62-15.76,42.36,42.36,0,0,1,15.8-9.3C229.28,131.82,220.6,124,216.31,111.51Z"/><path class="cls-2" d="M147.85,190.5c-1.5-.09-2.33-1-2.39-2.86a27.82,27.82,0,0,0-1.21-7.84c-2.39-7.26-7.58-11.21-14.92-12.59a20.76,20.76,0,0,0-2.72-.3c-2-.13-3.12-.94-3.11-2.43s1-2.25,3-2.35a21,21,0,0,0,8.76-2.29c6.11-3.15,9.06-8.4,9.89-15,.16-1.21.18-2.43.27-3.64.13-1.63,1-2.63,2.35-2.61s2.07.87,2.26,2.52a48.54,48.54,0,0,0,.91,7c2.3,8.7,9.13,13.27,17.33,14a13.92,13.92,0,0,1,1.93.23,2.25,2.25,0,0,1,1.86,2.46,2.33,2.33,0,0,1-2.24,2.14,25.47,25.47,0,0,0-9.09,2.12c-6.2,2.94-9.38,8-10.48,14.62-.29,1.73-.06,3.48-.46,5.19A1.77,1.77,0,0,1,147.85,190.5Zm11.28-25.84a23,23,0,0,1-11.48-11.37,23.31,23.31,0,0,1-11.28,11.27c.27.55.69.62,1,.8a22.55,22.55,0,0,1,9.58,9.49c.17.33.22.89.69.84s.46-.57.65-.91a23.18,23.18,0,0,1,5.17-6.49A29.7,29.7,0,0,1,159.13,164.66Z"/><path class="cls-2" d="M188.37,87.35c-.74,0-1.47-.15-2.21-.24a18.47,18.47,0,0,1-16.54-16c-.28-1.77-.19-3.56-.5-5.32A2.3,2.3,0,0,0,167,63.75a2.36,2.36,0,0,0-2.39,2.42c-.11,1.17-.14,2.35-.26,3.51-1,9.71-7.18,16.13-16.82,17.44-.95.13-1.91.15-2.85.31a2.26,2.26,0,0,0,.11,4.51c.82.1,1.65.16,2.46.27,5.78.78,10.65,3.14,14,8.16,2.42,3.68,3.23,7.83,3.36,12.16.07,2,.91,3.12,2.38,3.16s2.13-1,2.19-3.12a26.49,26.49,0,0,1,.3-3.77c.91-5.52,3.28-10.15,8.11-13.28a21.69,21.69,0,0,1,10.84-3.33c1.8-.09,2.8-.94,2.85-2.42S190.18,87.48,188.37,87.35ZM170,95.92a23.42,23.42,0,0,0-2.79,4.25c-.25.48-.52.94-.92.12A22.19,22.19,0,0,0,155.76,90c-.1,0-.17-.17-.38-.39a23.11,23.11,0,0,0,11.33-11.32,23.14,23.14,0,0,0,11.5,11.41A23.84,23.84,0,0,0,170,95.92Z"/><path class="cls-2" d="M178.21,89.69A23.84,23.84,0,0,0,170,95.92a23.42,23.42,0,0,0-2.79,4.25c-.25.48-.52.94-.92.12A22.19,22.19,0,0,0,155.76,90c-.1,0-.17-.17-.38-.39a23.11,23.11,0,0,0,11.33-11.32A23.14,23.14,0,0,0,178.21,89.69Z"/></svg>