<svg id="Layer_1" data-name="Layer 1" xmlns="http://www.w3.org/2000/svg" viewBox="0 0 300 300"><defs><style>.cls-1{fill:#ffc200;}.cls-2{fill:#232323;}.cls-3{fill:#fff;}</style></defs><polygon class="cls-1" points="199.95 130.43 199.95 130.55 89.75 215.76 89.53 215.76 89.53 130.43 144.74 87.73 199.95 130.43"/><polygon class="cls-2" points="210.47 122.69 200.13 130.69 178.14 113.64 161.85 101 144.74 87.73 155.08 79.73 172.19 93 191.58 78.02 207.87 90.65 188.48 105.64 210.47 122.69"/><path class="cls-3" d="M141.64,135.31a20.21,20.21,0,0,0-20.19,20.22,20.22,20.22,0,0,0-20.23-20.22,20.19,20.19,0,0,0,20.23-20.19A20.18,20.18,0,0,0,141.64,135.31Z"/><path class="cls-3" d="M159.35,148.12a12.82,12.82,0,0,0-12.8,12.82,12.81,12.81,0,0,0-12.82-12.82,12.79,12.79,0,0,0,12.82-12.79A12.79,12.79,0,0,0,159.35,148.12Z"/><path class="cls-3" d="M159.35,127.29a5.62,5.62,0,0,0-5.61,5.62,5.62,5.62,0,0,0-5.62-5.62,5.61,5.61,0,0,0,5.62-5.61A5.6,5.6,0,0,0,159.35,127.29Z"/><path class="cls-2" d="M189.59,225.91h-68.7c-11.16,0-20.23-8.51-20.23-19V174.21h5V207c0,7.69,6.83,14,15.23,14h68.7c8.4,0,15.23-6.27,15.23-14V122.69h5V207C209.82,217.4,200.75,225.91,189.59,225.91Z"/></svg>