<svg id="Layer_1" data-name="Layer 1" xmlns="http://www.w3.org/2000/svg" viewBox="0 0 300 300"><defs><style>.cls-1{fill:#ffc200;}.cls-2{fill:#232323;}</style></defs><path class="cls-1" d="M201.88,119.64v65a13.17,13.17,0,0,1-13.17,13.17h-90a13.17,13.17,0,0,1-13.17-13.17v-65a13.19,13.19,0,0,1,5.11-10.42l45-34.81a13.19,13.19,0,0,1,16.11,0l45,34.81A13.19,13.19,0,0,1,201.88,119.64Z"/><path class="cls-2" d="M190,154.56a32.76,32.76,0,0,1-27.24,23l-16.36,56.36-25-7.22,16.36-56.37a32.76,32.76,0,0,1,9-55.8,1.79,1.79,0,0,1,2.35,2.16l-6.36,21.87,13.45,14.82L175.49,148l6.35-21.88a1.79,1.79,0,0,1,3.15-.56A32.68,32.68,0,0,1,190,154.56Z"/><path class="cls-2" d="M200.54,213.2H172.31v-5h28.23a10.69,10.69,0,0,0,10.67-10.67v-65a10.75,10.75,0,0,0-4.14-8.44l-45-34.81a10.67,10.67,0,0,0-13.05,0l-45,34.81a10.75,10.75,0,0,0-4.14,8.44v65A10.61,10.61,0,0,0,104,206l-3,4a15.54,15.54,0,0,1-6.16-12.45v-65a15.76,15.76,0,0,1,6.08-12.39l45-34.81a15.65,15.65,0,0,1,19.17,0l45,34.81a15.77,15.77,0,0,1,6.09,12.39v65A15.69,15.69,0,0,1,200.54,213.2Z"/></svg>