<svg id="Layer_1" data-name="Layer 1" xmlns="http://www.w3.org/2000/svg" viewBox="0 0 138.86 138.86"><defs><style>.cls-1{fill:#2b2b2b;}.cls-2{fill:#fff;}</style></defs><circle class="cls-1" cx="69.43" cy="69.43" r="69.43"/><path class="cls-2" d="M102.89,64.17a2.29,2.29,0,0,1-1.35,2.31A2.36,2.36,0,0,1,99,66.23a7.36,7.36,0,0,1-.77-.71l-28-28c-.77-.76-.77-.76-1.55,0q-14,14.06-28.08,28.1a2.91,2.91,0,0,1-2.2,1.07,2.28,2.28,0,0,1-2.11-1.28,2.36,2.36,0,0,1,.13-2.55,5,5,0,0,1,.69-.77Q52.18,47,67.26,31.9a2.83,2.83,0,0,1,4.34,0Q86.68,47,101.83,62.14A2.69,2.69,0,0,1,102.89,64.17Z"/><path class="cls-2" d="M69.44,97.73H55.06A11.86,11.86,0,0,1,43.15,85.86q0-7.15,0-14.31a2.44,2.44,0,1,1,4.87,0c0,4.67,0,9.34,0,14a8.91,8.91,0,0,0,.1,1.26,7,7,0,0,0,7,6q14.35,0,28.7,0a7.06,7.06,0,0,0,7.06-7.16c0-4.75,0-9.49,0-14.24a2.37,2.37,0,0,1,2-2.42,2.45,2.45,0,0,1,2.76,1.64,3,3,0,0,1,.11,1c0,4.82,0,9.64,0,14.46A12,12,0,0,1,85.9,97.58a13.11,13.11,0,0,1-2.07.15Z"/></svg>