<svg id="Layer_1" data-name="Layer 1" xmlns="http://www.w3.org/2000/svg" viewBox="0 0 300 300"><defs><style>.cls-1{fill:#ffc200;}.cls-2{fill:#232323;}</style></defs><path class="cls-1" d="M183,171.4c-37.37,4.67-110.71,10.74-110.71,10.74V157a7.78,7.78,0,0,1,1.09-.07,6.89,6.89,0,0,1,5.52,2.77,3.38,3.38,0,0,0,4.23,1.1,26.86,26.86,0,0,0,6.69-3.95A3.46,3.46,0,0,0,91,152.4a6.61,6.61,0,0,1-.26-4.05,6.9,6.9,0,0,1,6-5.36,3.37,3.37,0,0,0,2.87-2.6,24.12,24.12,0,0,0,.05-9.65A3.35,3.35,0,0,0,96.83,128a7,7,0,0,1-5.58-9.41,3.46,3.46,0,0,0,.25-1.27,3.4,3.4,0,0,0-1.27-2.66,26.79,26.79,0,0,0-7.56-4.45,3.45,3.45,0,0,0-4.38,1.12,7,7,0,0,1-6,2.45v-15a3.72,3.72,0,0,1,4-3.73l11,.88h0c33.81,2.74,113.72,9.79,126.92,16.06C231.08,120,220.33,166.73,183,171.4Z"/><path class="cls-1" d="M72.85,144.6a4,4,0,0,1-.6,0V126.65c.25,0,.51,0,.77,0a8.83,8.83,0,0,1,8.87,8.92A8.93,8.93,0,0,1,72.85,144.6Z"/><path class="cls-1" d="M122.7,128c-6.54,42-50.45,54.18-50.45,54.18V157a7.78,7.78,0,0,1,1.09-.07,6.89,6.89,0,0,1,5.52,2.77,3.38,3.38,0,0,0,4.23,1.1,26.86,26.86,0,0,0,6.69-3.95A3.46,3.46,0,0,0,91,152.4a6.61,6.61,0,0,1-.26-4.05,6.9,6.9,0,0,1,6-5.36,3.37,3.37,0,0,0,2.87-2.6,24.12,24.12,0,0,0,.05-9.65A3.35,3.35,0,0,0,96.83,128a7,7,0,0,1-5.58-9.41,3.46,3.46,0,0,0,.25-1.27,3.4,3.4,0,0,0-1.27-2.66,26.79,26.79,0,0,0-7.56-4.45,3.45,3.45,0,0,0-4.38,1.12,7,7,0,0,1-6,2.45V99.05a4.16,4.16,0,0,1,1.89-3.49,4.1,4.1,0,0,1,2.47-.66A106.71,106.71,0,0,1,87.31,96h0C103.39,98.39,126.06,105.73,122.7,128Z"/><path class="cls-1" d="M63.94,135.63a8.92,8.92,0,0,0,8.31,8.93V157a6.74,6.74,0,0,0-4.62,2.83,3.69,3.69,0,0,1-2.48,1.53,3.13,3.13,0,0,1-1.55-.2,26.23,26.23,0,0,1-8-4.62,3.27,3.27,0,0,1-.85-3.9,7,7,0,0,0,0-5.81,6.74,6.74,0,0,0-5.47-4.06,3.44,3.44,0,0,1-3.26-3.06,25.08,25.08,0,0,1,.2-9.26,3.38,3.38,0,0,1,3-2.67,7,7,0,0,0,6.32-6.83,7.28,7.28,0,0,0-.46-2.6,3.45,3.45,0,0,1,1.3-4.33,27.43,27.43,0,0,1,6.83-3.82,3.45,3.45,0,0,1,4.29,1.12,7,7,0,0,0,4.72,2.48v12.86A8.85,8.85,0,0,0,63.94,135.63Z"/><path class="cls-2" d="M77.6,194.64V166.77h5V189.2c13.61-1.14,75.06-6.4,107.91-10.5,25.08-3.14,36.63-25.61,36.83-40.56l5,.06c-.22,16.77-13.15,42-41.21,45.46-37,4.62-110.09,10.69-110.82,10.75Z"/><path class="cls-2" d="M232.34,138.2l-5-.06c.09-7-2.2-12.14-6.3-14.08-2.44-1.16-9.25-3.1-27.86-5.75l.71-5c15.65,2.23,25.24,4.26,29.3,6.18C229.12,122.36,232.46,129.16,232.34,138.2Z"/><path class="cls-2" d="M193.18,118.31c-30-4.27-74.4-8.14-98.19-10.07l-.49,0c-4.44-.36-8-.65-10.57-.84a1.12,1.12,0,0,0-.7.16,1.22,1.22,0,0,0-.63,1.07V113h-5v-4.41a6.23,6.23,0,0,1,6.71-6.21c2.59.19,6.34.49,11,.86h.49l.1.05c24,1.95,68.07,5.81,98,10.07Z"/><path class="cls-2" d="M77.6,195.21V166.77h5v21.66c10-3.71,40.29-17.66,45.48-51.08,1.36-8.94-1.69-15.8-9.33-21-5.65-3.83-13.93-6.66-23.93-8.16l-.32,0c-4.18-.61-7.82-.88-10.16-1a1.61,1.61,0,0,0-1,.26,1.67,1.67,0,0,0-.77,1.39V113h-5v-4.18a6.65,6.65,0,0,1,3-5.58,6.57,6.57,0,0,1,4-1.06c2.47.12,6.33.41,10.77,1.06h.4l.18.09c10.71,1.65,19.33,4.65,25.62,8.91,9.13,6.19,13.09,15.13,11.47,25.87-6.71,43.14-51.81,56.1-52.26,56.22Z"/><path class="cls-2" d="M107.64,136a3.35,3.35,0,0,0-2.82-2.73,7,7,0,0,1-5.58-9.41,3.22,3.22,0,0,0,.24-1.27,3.33,3.33,0,0,0-1.26-2.66,26.79,26.79,0,0,0-7.56-4.45,3.46,3.46,0,0,0-4.39,1.12,7,7,0,0,1-10.75,0,3.45,3.45,0,0,0-4.29-1.12,27.16,27.16,0,0,0-6.83,3.83,3.43,3.43,0,0,0-1.3,4.32,7.28,7.28,0,0,1,.46,2.6A7,7,0,0,1,57.25,133a3.39,3.39,0,0,0-3,2.67,25.29,25.29,0,0,0-.2,9.26A3.44,3.44,0,0,0,57.31,148a6.74,6.74,0,0,1,5.46,4.06,7,7,0,0,1,0,5.8,3.3,3.3,0,0,0,.85,3.92,26.2,26.2,0,0,0,8,4.61,3,3,0,0,0,1.55.2,3.58,3.58,0,0,0,2.47-1.53,6.82,6.82,0,0,1,4.63-2.83,7.77,7.77,0,0,1,1.1-.06,6.84,6.84,0,0,1,5.51,2.76,3.37,3.37,0,0,0,4.23,1.1,27,27,0,0,0,6.69-4A3.45,3.45,0,0,0,99,157.64a6.64,6.64,0,0,1-.26-4.06,6.92,6.92,0,0,1,6-5.36,3.36,3.36,0,0,0,2.87-2.6A24.3,24.3,0,0,0,107.64,136Zm-26.8,13.86-.6,0a9,9,0,0,1,0-17.91c.25,0,.51,0,.77,0a8.85,8.85,0,0,1,8.88,8.92A8.94,8.94,0,0,1,80.84,149.83Z"/><path class="cls-2" d="M124.24,177.8a2.5,2.5,0,0,1-.25-5l68.84-7.05a2.5,2.5,0,0,1,.51,5l-68.84,7.05Z"/><path class="cls-2" d="M136,165.12a2.5,2.5,0,0,1-.18-5L206.21,155a2.5,2.5,0,0,1,.36,5l-70.37,5.13Z"/><path class="cls-2" d="M150.44,152.78a2.5,2.5,0,0,1-.13-5l67.81-3.61a2.5,2.5,0,0,1,.27,5l-67.81,3.6Z"/></svg>