<svg id="Layer_1" data-name="Layer 1" xmlns="http://www.w3.org/2000/svg" viewBox="0 0 300 300"><defs><style>.cls-1{fill:#ffc200;}.cls-2{fill:#efefef;}.cls-3{fill:#232323;}</style></defs><polygon class="cls-1" points="174.37 89.66 174.37 134.21 80 197.77 80 89.66 174.37 89.66"/><polygon points="174.37 134.21 174.37 243.94 80 243.94 80 197.77 174.37 134.21"/><rect class="cls-2" x="135.06" y="111.71" width="12.21" height="22.5"/><rect class="cls-2" x="105.92" y="144.93" width="12.21" height="22.5"/><rect class="cls-2" x="135.06" y="144.93" width="12.21" height="22.5"/><rect class="cls-2" x="105.92" y="178.14" width="12.21" height="22.5"/><rect class="cls-2" x="135.06" y="178.14" width="12.21" height="22.5"/><rect x="61.08" y="237.84" width="130.86" height="12.21"/><path d="M267.54,95.64c2.36,1.4,2.82,3,1.58,5.45L240.38,158.7c-.63,1.26-.63,1.26.63,1.89s2.79,1.37,4.18,2.09a9.93,9.93,0,0,1,4.53,13.75c-1.33,2.72-1.33,2.72-4,1.37l-31.22-15.62c-1.35-.68-1.32-.67-.7-2,1.12-2.36,2.42-4.55,4.82-5.84a9.79,9.79,0,0,1,9.29-.29c1.58.74,3.15,1.49,4.67,2.34.86.48,1.24.37,1.69-.55q11-22.15,22.1-44.27c2.24-4.48,4.5-8.94,6.7-13.43a5,5,0,0,1,2.31-2.49Z"/><path d="M244.75,185.8A97.27,97.27,0,0,1,231,202.62c-1.2,1.21-2.44,2.38-3.68,3.55a3.2,3.2,0,0,1-2.45,1,3.69,3.69,0,0,1-2-.56q-6.81-3.4-13.62-6.81a4.3,4.3,0,0,1-1.76-1.44h0c0-2.21,2.5-4.08,4.55-5.23l-5.89,2.81a15.11,15.11,0,0,1-7.49-1.47c-5.34-2.61-10.65-5.29-16-8a3.34,3.34,0,0,1-1.62-4.75,3.29,3.29,0,0,1,2.51-1.71,56.81,56.81,0,0,0,17.11-5.5,27.06,27.06,0,0,0,8.68-6.78,1,1,0,0,1,1.47-.31q16.76,8.43,33.54,16.82C245.4,184.69,245.17,185.13,244.75,185.8Z"/><path d="M214.65,191.86l-2.5,1.19A22.34,22.34,0,0,1,214.65,191.86Z"/><path class="cls-3" d="M30.53,85.52c.76-.91,1.79-.94,2.88-1,8.43-.71,15.65-3.78,20.71-10.89a27.31,27.31,0,0,0,4.55-12.48,49.14,49.14,0,0,0,.38-5.29c0-1.19.7-2,1.65-2s1.73.77,1.74,2A36,36,0,0,0,64.69,68.6c2.84,7.2,8.11,11.83,15.36,14.32a28.55,28.55,0,0,0,8.88,1.61,2.06,2.06,0,0,1,2,.92c.71,1.26-.15,2.56-1.73,2.64a32.93,32.93,0,0,0-8.52,1.51c-9.85,3.25-15.57,10.07-17.46,20.19a34.45,34.45,0,0,0-.6,6.33c0,1.86-.58,2.7-1.77,2.69s-1.73-.84-1.75-2.72a32.44,32.44,0,0,0-2.75-13.32,23.27,23.27,0,0,0-10.21-11,30.83,30.83,0,0,0-13.46-3.7,2.41,2.41,0,0,1-2.15-1.23Zm30.34,19.09c3.18-9.21,9.59-15,18.8-18.22-9.24-3.2-15.64-9-18.81-18.52a27.75,27.75,0,0,1-7.11,11.65A31.34,31.34,0,0,1,42.07,86.4C51.28,89.6,57.69,95.41,60.87,104.61Z"/><path class="cls-3" d="M111.47,46.22c1.12.07,1.73.77,1.77,2.11a20.35,20.35,0,0,0,.9,5.8c1.76,5.36,5.6,8.29,11,9.31a16.7,16.7,0,0,0,2,.22c1.51.09,2.3.7,2.29,1.79s-.77,1.67-2.24,1.74a15.7,15.7,0,0,0-6.48,1.69c-4.52,2.33-6.69,6.21-7.31,11.11-.12.89-.14,1.79-.2,2.69-.09,1.2-.76,1.94-1.74,1.93S110,84,109.83,82.75a34.4,34.4,0,0,0-.67-5.15c-1.7-6.44-6.75-9.82-12.81-10.38a13.61,13.61,0,0,1-1.43-.17,1.67,1.67,0,0,1-1.37-1.82,1.72,1.72,0,0,1,1.65-1.59,18.74,18.74,0,0,0,6.72-1.56c4.59-2.18,6.94-5.92,7.75-10.81.21-1.28,0-2.58.34-3.84C110.19,46.64,110.6,46.16,111.47,46.22Zm-8.33,19.1a17,17,0,0,1,8.48,8.41A17.22,17.22,0,0,1,120,65.4c-.2-.41-.51-.46-.76-.59a16.76,16.76,0,0,1-7.08-7c-.12-.24-.16-.66-.5-.62s-.35.42-.49.67a17,17,0,0,1-3.82,4.8A21.85,21.85,0,0,1,103.14,65.32Z"/><path class="cls-3" d="M81.52,122.47c.55,0,1.09.11,1.63.18a13.64,13.64,0,0,1,12.23,11.81c.21,1.31.14,2.63.37,3.93a1.69,1.69,0,0,0,1.61,1.52,1.73,1.73,0,0,0,1.76-1.79c.08-.86.11-1.73.19-2.59.74-7.18,5.31-11.92,12.44-12.89.7-.1,1.41-.11,2.1-.23a1.67,1.67,0,0,0-.08-3.34c-.6-.07-1.22-.11-1.81-.19-4.28-.58-7.88-2.33-10.32-6a16.84,16.84,0,0,1-2.49-9c-.05-1.47-.67-2.3-1.76-2.33s-1.57.75-1.62,2.3a18.52,18.52,0,0,1-.22,2.79c-.67,4.08-2.42,7.5-6,9.82a16.16,16.16,0,0,1-8,2.46c-1.33.07-2.07.69-2.1,1.79S80.18,122.37,81.52,122.47Zm13.59-6.34A17.17,17.17,0,0,0,97.17,113c.19-.35.38-.69.68-.09a16.44,16.44,0,0,0,7.78,7.62c.07,0,.12.12.28.28a17.14,17.14,0,0,0-8.38,8.37,17.06,17.06,0,0,0-8.5-8.43A17.68,17.68,0,0,0,95.11,116.13Z"/><path class="cls-3" d="M89,120.74a17.68,17.68,0,0,0,6.08-4.61A17.17,17.17,0,0,0,97.17,113c.19-.35.38-.69.68-.09a16.44,16.44,0,0,0,7.78,7.62c.07,0,.12.12.28.28a17.14,17.14,0,0,0-8.38,8.37A17.06,17.06,0,0,0,89,120.74Z"/></svg>