<svg id="Layer_1" data-name="Layer 1" xmlns="http://www.w3.org/2000/svg" viewBox="0 0 300 300"><defs><style>.cls-1{fill:#ffc200;}.cls-2{fill:#232323;}</style></defs><rect class="cls-1" x="66.49" y="103.2" width="169.59" height="103.57" rx="16.39"/><path class="cls-2" d="M231.49,217.54H90A16.56,16.56,0,0,1,73.45,201V185.56h5V201A11.56,11.56,0,0,0,90,212.54H231.49A11.56,11.56,0,0,0,243,201V125.52A11.56,11.56,0,0,0,231.49,114H141.16v-5h90.33A16.56,16.56,0,0,1,248,125.52V201A16.56,16.56,0,0,1,231.49,217.54Z"/><path class="cls-2" d="M189.67,126.78v4.32A32.43,32.43,0,0,1,218,159.39h4.32A36.75,36.75,0,0,0,189.67,126.78Zm-40.33,32.61h4.32A32.45,32.45,0,0,1,182,131.1v-4.32A36.75,36.75,0,0,0,149.34,159.39ZM218,167.11a32.41,32.41,0,0,1-28.29,28.29v4.32a36.75,36.75,0,0,0,32.61-32.61Zm-64.3,0h-4.32A36.75,36.75,0,0,0,182,199.72V195.4A32.43,32.43,0,0,1,153.66,167.11Z"/><path class="cls-2" d="M189.67,137v4.35a22.29,22.29,0,0,1,18.07,18.06h4.34A26.58,26.58,0,0,0,189.67,137Zm-30.13,22.41h4.35A22.29,22.29,0,0,1,182,141.33V137A26.6,26.6,0,0,0,159.54,159.39Zm48.2,7.72a22.29,22.29,0,0,1-18.07,18.07v4.34a26.58,26.58,0,0,0,22.41-22.41Zm-43.85,0h-4.35A26.58,26.58,0,0,0,182,189.52v-4.34A22.29,22.29,0,0,1,163.89,167.11Z"/><path class="cls-2" d="M189.67,147.76v4.47a11.73,11.73,0,0,1,7.17,7.16h4.47A16,16,0,0,0,189.67,147.76Zm-19.35,11.63h4.47a11.71,11.71,0,0,1,7.16-7.16v-4.47A16,16,0,0,0,170.32,159.39Zm26.52,7.72a11.69,11.69,0,0,1-7.17,7.17v4.47a16,16,0,0,0,11.64-11.64Zm-22.05,0h-4.47A16,16,0,0,0,182,178.75v-4.47A11.73,11.73,0,0,1,174.79,167.11Z"/><path class="cls-2" d="M123.44,154.88l-11.28-11.27c-2.4-2.4-4.81-4.8-7.2-7.21a2.41,2.41,0,0,0-2.12-.91,5.85,5.85,0,0,1-4.67-1.34c-.48-.36-.53-.6-.08-1,2.28-2.24,4.53-4.51,6.78-6.77A1.06,1.06,0,0,1,106,126a15.08,15.08,0,0,0,6.24.14A15.81,15.81,0,0,0,124,104.35c-.91-2.16-2.69-2.52-4.35-.87l-6.3,6.31a3.14,3.14,0,0,1-3-.1,2.94,2.94,0,0,1,.1-3.08c2.13-2.13,4.28-4.26,6.4-6.42a2.34,2.34,0,0,0-.76-4A15.5,15.5,0,0,0,106.67,95a15.79,15.79,0,0,0-12.64,19,1,1,0,0,1-.28,1.08c-3.48,3.47-7,6.94-10.43,10.43-.37.37-.58.3-.9,0-1-1-1.93-1.94-2.9-2.92-3.78-3.78-7.55-7.56-11.35-11.32-.43-.43-.5-.71,0-1.14a18.8,18.8,0,0,0,1.49-1.47,2.34,2.34,0,0,0-.29-3.61Q65,101.72,60.6,98.39a2.34,2.34,0,0,0-3.37.23c-1.67,1.64-3.34,3.3-5,5A2.35,2.35,0,0,0,52,107q3.3,4.35,6.63,8.68a2.33,2.33,0,0,0,3.71.25,17.41,17.41,0,0,0,1.42-1.43c.41-.45.68-.39,1.08,0q7.11,7.13,14.25,14.24c.41.41.38.64,0,1Q74,134.9,68.83,140.07a1.14,1.14,0,0,1-1.19.36,15.79,15.79,0,0,0-17.11,7.49,17.55,17.55,0,0,0-2.05,6v4a20.89,20.89,0,0,0,1.32,4.43,2.35,2.35,0,0,0,4,.8q3.24-3.16,6.4-6.41a1.42,1.42,0,0,1,1.65-.46,5.42,5.42,0,0,0,.89.19c.48.06.66.36.82.8a2.63,2.63,0,0,1-.91,3.2c-1.92,1.74-3.69,3.64-5.53,5.48s-1.37,3.44.82,4.4a21.42,21.42,0,0,0,4.15,1.2H66.3a19.07,19.07,0,0,0,5.63-1.93,15.82,15.82,0,0,0,7.72-17.13,1.27,1.27,0,0,1,.36-1.33q3.38-3.31,6.67-6.66c.47-.48.73-.42,1.09.08a5.79,5.79,0,0,1,1.33,4.59,2.34,2.34,0,0,0,.82,2.08c1.14,1.12,2.26,2.25,3.4,3.38,4.91,4.92,9.84,9.83,14.74,14.78a7.83,7.83,0,0,0,3.19,2.14h2.25a6.66,6.66,0,0,0,2.93-1.86c2.32-2.37,4.69-4.7,7-7.05S125.88,157.34,123.44,154.88ZM64.06,107.66c-.93.93-1.87,1.85-2.79,2.8-.33.34-.52.32-.8-.06-1.07-1.43-2.17-2.85-3.27-4.27a.6.6,0,0,1,0-.95c.53-.49,1-1,1.54-1.53a.58.58,0,0,1,.9-.1c1.45,1.13,2.92,2.24,4.38,3.35.13.11.31.19.26.45C64.25,107.43,64.16,107.55,64.06,107.66Zm11.47,41.39a2.88,2.88,0,0,0-.78,3.25,11.08,11.08,0,0,1-8.68,14.52c-1.44.25-2.06.39-3,0,0-.3.3-.44.49-.63,1.44-1.45,2.88-2.9,4.35-4.33a2.78,2.78,0,0,0,.84-2.79c-.38-1.55-.71-3.11-1-4.67a2.4,2.4,0,0,0-2-2c-1.61-.36-3.22-.69-4.83-1.07a2.61,2.61,0,0,0-2.64.83c-1.44,1.45-2.89,2.89-4.34,4.34l-.65.62a5.23,5.23,0,0,1,0-3.13,11,11,0,0,1,10.12-9.2,10.13,10.13,0,0,1,4.41.54,2.79,2.79,0,0,0,3.2-.74q13.58-13.63,27.21-27.22a2.78,2.78,0,0,0,.75-3.13,11.09,11.09,0,0,1,8.51-14.56,6,6,0,0,1,3.17-.05c0,.34-.3.48-.48.66-1.47,1.48-2.92,2.94-4.4,4.4a2.63,2.63,0,0,0-.81,2.65c.38,1.6.71,3.21,1.06,4.82a2.42,2.42,0,0,0,2,2c1.63.36,3.26.69,4.89,1.07a2.51,2.51,0,0,0,2.52-.77l4.46-4.44c.18-.18.31-.45.68-.49a8.71,8.71,0,0,1-.33,4.27,11.06,11.06,0,0,1-9.75,8,10.81,10.81,0,0,1-4.56-.56,2.71,2.71,0,0,0-3.12.75Q89.14,135.48,75.53,149.05Zm17.26-5.13a10.46,10.46,0,0,0-1.86-2.79c-.31-.33-.29-.57,0-.88,1-.95,1.94-1.93,2.9-2.91.27-.26.49-.36.82-.06a13,13,0,0,0,2.9,2c.16.07.35.12.35.37s-.21.25-.33.37l-4,4C93.25,144.35,93,144.46,92.79,143.92Zm27.49,15.36-7.42,7.41a.58.58,0,0,1-1,0c-.45-.47-.91-.92-1.38-1.38q-7.65-7.65-15.3-15.28c-.46-.46-.43-.69,0-1.12,2.41-2.37,4.8-4.79,7.2-7.19.2-.19.35-.42.62-.47a1.28,1.28,0,0,1,.57.4q7.47,7.5,15,15c.56.57,1.12,1.14,1.7,1.69A.57.57,0,0,1,120.28,159.28Z"/><path class="cls-2" d="M120.28,159.28l-7.42,7.41a.58.58,0,0,1-1,0c-.45-.47-.91-.92-1.38-1.38q-7.65-7.65-15.3-15.28c-.46-.46-.43-.69,0-1.12,2.41-2.37,4.8-4.79,7.2-7.19.2-.19.35-.42.62-.47a1.28,1.28,0,0,1,.57.4q7.47,7.5,15,15c.56.57,1.12,1.14,1.7,1.69A.57.57,0,0,1,120.28,159.28Z"/><path class="cls-2" d="M97.93,139.61c-.1.11-.21.25-.33.37l-4,4c-.34.35-.55.46-.8-.08a10.46,10.46,0,0,0-1.86-2.79c-.31-.33-.29-.57,0-.88,1-.95,1.94-1.93,2.9-2.91.27-.26.49-.36.82-.06a13,13,0,0,0,2.9,2C97.74,139.31,97.93,139.36,97.93,139.61Z"/><path class="cls-2" d="M64.33,107.35c-.08.08-.17.2-.27.31-.93.93-1.87,1.85-2.79,2.8-.33.34-.52.32-.8-.06-1.07-1.43-2.17-2.85-3.27-4.27a.6.6,0,0,1,0-.95c.53-.49,1-1,1.54-1.53a.58.58,0,0,1,.9-.1c1.45,1.13,2.92,2.24,4.38,3.35C64.2,107,64.38,107.09,64.33,107.35Z"/></svg>