<svg id="Layer_1" data-name="Layer 1" xmlns="http://www.w3.org/2000/svg" viewBox="0 0 300 300"><defs><style>.cls-1{fill:#ffc200;}.cls-2{fill:#232323;}.cls-3{fill:#2b2b2b;}</style></defs><rect class="cls-1" x="65.43" y="92.26" width="66.43" height="31.57" rx="3.21"/><rect class="cls-1" x="65.43" y="177.76" width="66.43" height="31.57" rx="3.21"/><rect class="cls-1" x="110.08" y="134.93" width="66.43" height="31.57" rx="3.21"/><rect class="cls-1" x="141.31" y="177.59" width="66.43" height="31.57" rx="3.21"/><rect class="cls-1" x="65.43" y="136.32" width="35.52" height="31.57" rx="3.21"/><path class="cls-2" d="M135.35,135.92h-60a5.71,5.71,0,0,1-5.71-5.71V105.07a5.72,5.72,0,0,1,5.71-5.72h60a5.72,5.72,0,0,1,5.71,5.72v25.14A5.71,5.71,0,0,1,135.35,135.92Zm-60-31.57a.71.71,0,0,0-.71.72v25.14a.71.71,0,0,0,.71.71h60a.71.71,0,0,0,.71-.71V105.07a.71.71,0,0,0-.71-.72Z"/><path class="cls-2" d="M211.23,221.26h-60a5.71,5.71,0,0,1-5.71-5.71V190.41a5.72,5.72,0,0,1,5.71-5.72h60a5.73,5.73,0,0,1,5.72,5.72v25.14A5.72,5.72,0,0,1,211.23,221.26Zm-60-31.57a.71.71,0,0,0-.71.72v25.14a.71.71,0,0,0,.71.71h60a.71.71,0,0,0,.72-.71V190.41a.72.72,0,0,0-.72-.72Z"/><path class="cls-2" d="M165,180H75.35a5.71,5.71,0,0,1-5.71-5.71V149.13a5.71,5.71,0,0,1,5.71-5.71H165a5.71,5.71,0,0,1,5.71,5.71v25.15A5.71,5.71,0,0,1,165,180ZM75.35,148.42a.71.71,0,0,0-.71.71v25.15a.71.71,0,0,0,.71.71H165a.71.71,0,0,0,.71-.71V149.13a.71.71,0,0,0-.71-.71Z"/><path class="cls-3" d="M206.56,118.21l31.27,13.33a1.49,1.49,0,0,1-.29,2.83l-41.41,8.33a1.49,1.49,0,0,1-1.65-2.09L204.62,119A1.49,1.49,0,0,1,206.56,118.21Z"/><path class="cls-3" d="M218.62,127.33l-.37-1.11s4.36-1.47,6.11-3.57c.68-.82.54-2.09.39-3.43-.2-1.83-.43-3.9,1.53-5.13l.62,1c-1.25.78-1.21,2-1,4,.17,1.53.35,3.11-.65,4.31C223.3,125.75,218.81,127.27,218.62,127.33Z"/><rect class="cls-3" x="222.75" y="104.15" width="26.22" height="5.84" transform="translate(-15.98 167.64) rotate(-37.94)"/></svg>