<svg id="Layer_1" data-name="Layer 1" xmlns="http://www.w3.org/2000/svg" viewBox="0 0 138.86 138.86"><defs><style>.cls-1{fill:#2b2b2b;}.cls-2{fill:#fff;}</style></defs><circle class="cls-1" cx="69.43" cy="69.43" r="69.43"/><path class="cls-2" d="M69.39,105.09H36.45a2.41,2.41,0,0,1-2.68-2.49,2.33,2.33,0,0,1,2.28-2.35c.62,0,1.24,0,1.86,0,.45,0,.64-.16.6-.61,0-.17,0-.34,0-.52q0-16.39,0-32.79a1.79,1.79,0,0,0-.72-1.56,10.35,10.35,0,0,1-4-8.45c0-1.88,0-3.76,0-5.64A3.56,3.56,0,0,1,34.14,49c1.87-3.74,3.7-7.49,5.61-11.21a7,7,0,0,1,6.64-4.06q23,0,46.07,0a7,7,0,0,1,6.64,4.06c1.93,3.76,3.77,7.57,5.66,11.35a3.39,3.39,0,0,1,.34,1.5c0,1.88,0,3.76,0,5.64a10.44,10.44,0,0,1-4.15,8.55,1.42,1.42,0,0,0-.61,1.24q0,16.62,0,33.24c0,.71.2,1,.92.91a11.8,11.8,0,0,1,1.33,0,2.43,2.43,0,1,1,0,4.85H69.39Zm26.1-21.41c0-5.27,0-10.53,0-15.8,0-.56-.13-.84-.74-.76a2.92,2.92,0,0,1-.51,0,10.44,10.44,0,0,1-7.73-3.38c-.4-.42-.58-.37-1,0a10.72,10.72,0,0,1-15.62,0c-.4-.42-.59-.46-1,0a10.7,10.7,0,0,1-15.56.05c-.51-.52-.71-.39-1.13,0a10.36,10.36,0,0,1-8.17,3.36c-.65,0-.71.21-.71.74q0,15.72,0,31.45c0,.65.19.85.84.84,4.16,0,8.31,0,12.46,0,.71,0,.87-.23.87-.9,0-4.37,0-8.75,0-13.13a7.1,7.1,0,0,1,7.32-7.36H74a7.1,7.1,0,0,1,7.32,7.29q0,6.6,0,13.21c0,.67.17.89.87.88q6.2,0,12.38,0c.73,0,.92-.22.92-.93C95.48,94.11,95.49,88.9,95.49,83.68ZM69.35,48H97.77c.91,0,.92,0,.51-.84-1.16-2.32-2.35-4.63-3.47-7a2.57,2.57,0,0,0-2.53-1.58H46.58a2.57,2.57,0,0,0-2.53,1.58c-1.11,2.32-2.29,4.61-3.44,6.91-.44.9-.44.9.56.9ZM76.5,92.9c0-2.14,0-4.29,0-6.44a2.44,2.44,0,0,0-2.7-2.73c-2.92,0-5.83,0-8.75,0a2.41,2.41,0,0,0-2.69,2.65c0,4.37,0,8.75,0,13.12,0,.6.21.75.78.75q6.3,0,12.6,0c.64,0,.79-.23.78-.82C76.48,97.25,76.5,95.08,76.5,92.9Zm-31.95-40H39.29c-.45,0-.7.1-.68.61.06,1.26,0,2.52.12,3.77a5.83,5.83,0,0,0,11.54,0c.17-1.23.06-2.46.12-3.69,0-.56-.19-.72-.73-.72C48,52.88,46.25,52.86,44.55,52.86Zm16.57,0H55.94c-.43,0-.73,0-.71.59a36.61,36.61,0,0,0,.12,3.77,5.83,5.83,0,0,0,11.54,0c.17-1.21,0-2.42.12-3.62,0-.62-.22-.76-.78-.75C64.53,52.88,62.82,52.86,61.12,52.86Zm16.62,0H72.56c-.42,0-.73,0-.71.58A36.43,36.43,0,0,0,72,57.21a5.83,5.83,0,0,0,11.54,0c.17-1.21,0-2.41.12-3.62,0-.61-.22-.76-.78-.75C81.15,52.88,79.45,52.86,77.74,52.86Zm16.69,0H89.18c-.42,0-.73,0-.71.58a36.43,36.43,0,0,0,.12,3.77,5.83,5.83,0,0,0,11.54,0c.16-1.21.05-2.41.12-3.62,0-.61-.22-.76-.78-.75C97.79,52.88,96.11,52.86,94.43,52.86Z"/></svg>