<svg id="Layer_1" data-name="Layer 1" xmlns="http://www.w3.org/2000/svg" viewBox="0 0 500 500"><defs><style>.cls-1{fill:#ffc200;}.cls-2{fill:#2d2d2d;}</style></defs><path class="cls-1" d="M393.21,152.81s-47.47,231.56-188.15,250C78.2,339.29,109.24,105,109.24,105c108.85,8.45,149.7-21.87,149.7-21.87S287.61,125.13,393.21,152.81Z"/><polygon class="cls-2" points="326.67 193.41 252.75 246 225.6 207.85 198.42 227.2 225.57 265.35 244.91 292.53 346.01 220.59 326.67 193.41"/><path class="cls-2" d="M231.71,421.29l-1.58-.79c-53.68-26.9-87.78-88.18-98.62-177.23-8.09-66.48-.41-126-.33-126.56l.72-5.4,5.43.42C242.13,119.86,282.78,91.25,283.18,91l4.8-3.49,3.36,4.88c.27.39,29.32,40.75,131,67.4l5.27,1.38-1.1,5.34c-.12.59-12.35,59.3-41.78,119.46C345.29,366.51,293,413.24,233.46,421.06ZM142,123.61c-3.52,34.92-17.79,229,91.72,285.8,122.15-17.77,172.21-205.82,180.31-240-84.06-23-118.49-54.78-128.7-66.29C271.89,110.68,228.94,129.45,142,123.61Z"/></svg>