<svg xmlns="http://www.w3.org/2000/svg" viewBox="0 0 150 150"><defs><style>.cls-1{fill:#ffc000;}.cls-2{fill:#232323;}.cls-3{fill:none;stroke:#232323;stroke-miterlimit:10;stroke-width:3px;}</style></defs><g id="Layer_3" data-name="Layer 3"><path class="cls-1" d="M31.67,45.66A8.22,8.22,0,0,1,34,42.17a57.78,57.78,0,0,1,26.3-15.42,55.31,55.31,0,0,1,17.32-1.89,56.71,56.71,0,0,1,22.58,5.82,58.46,58.46,0,0,1,16.68,12.38,5.41,5.41,0,0,1,.29,7.26c-.85,1-1.83,2-2.75,3-1.9,2-3.78,4-5.72,6a5.08,5.08,0,0,1-7.65.14,48,48,0,0,0-5.86-5C94,53.7,92.86,53,91.69,52.35a5.82,5.82,0,0,1-2.92-4.75c-.31-3-.77-5.92-1.15-8.88-.05-.38-.29-.51-.61-.6a44.08,44.08,0,0,0-10.26-1.94A39.87,39.87,0,0,0,63,38.09a.87.87,0,0,0-.72.87c-.38,3.1-.76,6.2-1.2,9.3a5.28,5.28,0,0,1-2.79,4A38.27,38.27,0,0,0,51.45,57c-1,.86-1.86,1.8-2.85,2.64a5.15,5.15,0,0,1-7.24-.3c-1.91-1.92-3.75-3.91-5.61-5.87-.76-.79-1.51-1.6-2.28-2.38a7.73,7.73,0,0,1-1.8-2.93Z"/><path class="cls-1" d="M110,80q-5.68-10.63-11.36-21.26a9,9,0,0,0-8.54-5q-15.14,0-30.28,0a9,9,0,0,0-8.54,5C47.49,65.83,43.73,72.92,39.94,80a10.23,10.23,0,0,0-1.18,4.88c0,3.83,0,7.67,0,11.5A9.44,9.44,0,0,0,39,98.82a7.31,7.31,0,0,0,7.44,5.58h56.67a9.76,9.76,0,0,0,2.59-.29c3.4-.93,5.44-3.77,5.46-7.63s0-7.79,0-11.68A10.13,10.13,0,0,0,110,80ZM64.14,93.34a3.45,3.45,0,0,1-3.49-3.47,3.5,3.5,0,1,1,7,0A3.47,3.47,0,0,1,64.14,93.34Zm0-10.83A3.45,3.45,0,0,1,60.65,79a3.5,3.5,0,1,1,7,0A3.47,3.47,0,0,1,64.12,82.51Zm0-10.83a3.45,3.45,0,0,1-3.44-3.52,3.5,3.5,0,1,1,7,.11A3.47,3.47,0,0,1,64.09,71.68ZM75,93.34a3.48,3.48,0,0,1-3.5-3.48,3.51,3.51,0,1,1,7,0A3.47,3.47,0,0,1,75,93.34Zm0-10.83A3.47,3.47,0,0,1,71.47,79a3.51,3.51,0,1,1,7,.1A3.48,3.48,0,0,1,74.92,82.51Zm0-10.83a3.47,3.47,0,0,1-3.5-3.47,3.51,3.51,0,0,1,7,0A3.47,3.47,0,0,1,75,71.68ZM85.8,93.34a3.46,3.46,0,0,1-3.5-3.47,3.5,3.5,0,1,1,7,0A3.47,3.47,0,0,1,85.8,93.34Zm0-10.83A3.46,3.46,0,0,1,82.3,79a3.5,3.5,0,1,1,7,.08A3.47,3.47,0,0,1,85.76,82.51Zm0-10.83a3.45,3.45,0,0,1-3.5-3.47,3.5,3.5,0,1,1,7,0A3.46,3.46,0,0,1,85.8,71.68Z"/><path class="cls-2" d="M31.61,45.66a8.22,8.22,0,0,1,2.29-3.49A57.81,57.81,0,0,1,60.21,26.75a55.28,55.28,0,0,1,17.31-1.89,56.75,56.75,0,0,1,22.59,5.82,58.6,58.6,0,0,1,16.68,12.38,5.41,5.41,0,0,1,.28,7.26c-.84,1-1.82,2-2.75,3-1.9,2-3.78,4-5.71,6a5.08,5.08,0,0,1-7.65.14,48,48,0,0,0-5.86-5C94,53.7,92.81,53,91.64,52.35a5.8,5.8,0,0,1-2.92-4.75c-.31-3-.77-5.92-1.16-8.88,0-.38-.29-.51-.6-.6A44.08,44.08,0,0,0,76.7,36.18,39.9,39.9,0,0,0,63,38.09a.88.88,0,0,0-.72.87c-.37,3.1-.76,6.2-1.19,9.3a5.27,5.27,0,0,1-2.8,4A38.19,38.19,0,0,0,51.4,57c-1,.86-1.87,1.8-2.85,2.64a5.16,5.16,0,0,1-7.25-.3c-1.9-1.92-3.74-3.91-5.61-5.87-.76-.79-1.51-1.6-2.28-2.38a7.86,7.86,0,0,1-1.8-2.93Z"/><path class="cls-3" d="M111.24,95.53q0,5.84,0,11.68c0,3.86-2.06,6.7-5.46,7.63a9.76,9.76,0,0,1-2.59.29H46.52a7.31,7.31,0,0,1-7.44-5.58,9.44,9.44,0,0,1-.27-2.43c0-3.83,0-7.67,0-11.5A10.23,10.23,0,0,1,40,90.73c3.79-7.09,7.55-14.18,11.36-21.26a9,9,0,0,1,8.54-5q15.14,0,30.28,0a9,9,0,0,1,8.54,5q5.7,10.6,11.36,21.26A10.13,10.13,0,0,1,111.24,95.53Z"/></g></svg>