<svg xmlns="http://www.w3.org/2000/svg" viewBox="0 0 150 150"><defs><style>.cls-1{fill:#ffc000;}.cls-2{fill:#fefefe;}.cls-3{fill:#232323;}.cls-4{fill:#fff;}</style></defs><g id="Layer_3" data-name="Layer 3"><path class="cls-1" d="M106.44,111.83H69.06c-.43-.33-.39-.8-.4-1.25,0-1.87,0-3.75,0-5.63V86.88a10.7,10.7,0,0,1,.07-1.7,1,1,0,0,1,.53-.73,35.79,35.79,0,0,0,5.71-4c7.36-5.46,14.67-11,22-16.42,1.28-.91,2.51-1.91,3.78-2.84,3-2.2,5.89-4.5,9-6.59a.87.87,0,0,1,.3-.16,3.44,3.44,0,0,1,2.73,2.74v48.48a7,7,0,0,1-3.57,5.43C108.33,111.67,107.35,111.56,106.44,111.83Z"/><path class="cls-1" d="M69.06,84.85v27H31.5a9.52,9.52,0,0,1-3-1,7.42,7.42,0,0,1-3.21-6.58c0-12.51,0-25,0-37.53,0-2.78.08-5.57,0-8.35a3.72,3.72,0,0,1,2.33-3.77,2.09,2.09,0,0,1,1.48.5c3.33,2.39,6.56,4.92,9.87,7.35A21.37,21.37,0,0,0,41.09,64C48,69.2,54.88,74.32,61.77,79.48c1.81,1.37,3.64,2.71,5.46,4.08a9.88,9.88,0,0,0,1.56.87A.9.9,0,0,1,69.06,84.85Z"/><path class="cls-2" d="M28,54.75c-.56.39-1.13.77-1.65,1.2a2.69,2.69,0,0,0-.95,2.27q0,5.67,0,11.34v34.11a7.74,7.74,0,0,0,4.46,7.44c.55.29,1.23.23,1.68.72-2,0-3.92,0-5.88,0-.37,0-.51-.06-.44-.44a2,2,0,0,0,0-.42q0-43,0-85.92c0-.71.15-.83.83-.83q43,0,86,0c.67,0,.77.19.77.8q0,16.1,0,32.17a6.2,6.2,0,0,0-2.65-2.52,1.52,1.52,0,0,1-1.1-.35L98,46.15a2.83,2.83,0,0,1-1.14-1.32c-.1-1.08-.05-2.16-.05-3.24,0-4.66,0-9.32,0-14,0-2-.74-2.77-2.78-2.78H71c-.65,0-1.31,0-2,0-1.42.09-2.84,0-4.26,0H44c-1.85,0-2.65.83-2.69,2.66,0,.39,0,.79,0,1.19,0,4.8,0,9.61,0,14.41a16.27,16.27,0,0,1,0,1.71,3.54,3.54,0,0,1-1.45,1.59q-5.19,3.81-10.35,7.68A2.1,2.1,0,0,1,28,54.75Z"/><path class="cls-3" d="M69.06,24.43H94.49a2.48,2.48,0,0,1,2.73,2.78q0,9,0,17.92a2.7,2.7,0,0,1,.38,1.54q0,8,0,16.08a2.69,2.69,0,0,1-.37,1.54q-6,4.5-12,9L71.5,83.55a6.14,6.14,0,0,1-2.44,1.3l-.37-.15c-.08-6,0-12.1,0-18.16a1.93,1.93,0,0,1,.11-.75c.13-.49.6-.58,1-.74a2.17,2.17,0,0,0,0-4.1c-.35-.15-.78-.24-.93-.68a13,13,0,0,1,.11-5,2.05,2.05,0,0,1,1.61-.36c4.29,0,8.58,0,12.86,0a7.7,7.7,0,0,0,1.36-.06,2.12,2.12,0,0,0,0-4.19,6.89,6.89,0,0,0-1.36-.07H70.54a2.17,2.17,0,0,1-1.62-.36,1.38,1.38,0,0,1-.24-.88c0-1.43-.26-2.88.22-4.29.44-.48,1-.38,1.59-.38,4.27,0,8.53,0,12.8,0a9.17,9.17,0,0,0,1.28,0,2.13,2.13,0,0,0,0-4.24,9,9,0,0,0-1.27,0c-4.27,0-8.53,0-12.8,0A2.06,2.06,0,0,1,68.91,40a2.12,2.12,0,0,1-.25-1.23q0-6.51,0-13C68.66,25.28,68.6,24.77,69.06,24.43Z"/><path class="cls-1" d="M97.25,64.29q0-9.57,0-19.16l12.87,9.55L100,62.29C99.08,63,98.16,63.63,97.25,64.29Z"/><path class="cls-3" d="M69.05,65.57q0,9,0,18.09c0,.38.14.83-.36,1a2.15,2.15,0,0,1-1.38-.6L41.05,64.51l-.18-.18a2.69,2.69,0,0,1-.38-1.55c0-5.36,0-10.73,0-16.1a2.71,2.71,0,0,1,.38-1.55q0-8.75,0-17.49c0-2.32.89-3.22,3.17-3.22h25q0,7.76,0,15.52l-.08.14a2.1,2.1,0,0,1-1.47.26c-4.29,0-8.58,0-12.87,0a6.76,6.76,0,0,0-1.27.06,2.12,2.12,0,0,0,0,4.19,6,6,0,0,0,1.27.07H67.5A2.11,2.11,0,0,1,69,45l.08.13V50.2l-.08.13a2.11,2.11,0,0,1-1.47.27H54.63a6,6,0,0,0-1.27.07,2.12,2.12,0,0,0,0,4.19,6.76,6.76,0,0,0,1.27.06c4.29,0,8.58,0,12.87,0a2.1,2.1,0,0,1,1.47.26l.08.14v5.11l-.08.13a2.06,2.06,0,0,1-1.47.27H54.7a6.75,6.75,0,0,0-1.27,0,2.12,2.12,0,0,0,0,4.2,6.76,6.76,0,0,0,1.27.06H67.5a2.06,2.06,0,0,1,1.47.27Z"/><path class="cls-1" d="M40.87,45.13v19.2l-12.3-9.14L28,54.75q4.8-3.61,9.62-7.21C38.66,46.73,39.77,45.93,40.87,45.13Z"/><path class="cls-4" d="M69.05,40H84.31a2.57,2.57,0,0,1,2.1,4.17,2.63,2.63,0,0,1-2.27.95H69.06a1,1,0,0,1-.38-.81q-.06-1.74,0-3.48a1,1,0,0,1,.38-.81Z"/><path class="cls-4" d="M69.05,50.2H84.31a2.57,2.57,0,0,1,2.1,4.18,2.69,2.69,0,0,1-2.27.95H69.05v0a1,1,0,0,1-.38-.81q-.06-1.74,0-3.48a1,1,0,0,1,.38-.81Z"/><path class="cls-4" d="M69.05,60.44a2.57,2.57,0,0,1,0,5.13h0a1,1,0,0,1-.38-.82c0-1.16,0-2.32,0-3.47a1,1,0,0,1,.38-.82Z"/><path class="cls-4" d="M69.06,40v5.1H53.89a2.57,2.57,0,1,1,0-5.12Z"/><path class="cls-4" d="M69.06,50.21v5.1H53.89a2.57,2.57,0,1,1,0-5.12Z"/><path class="cls-4" d="M69.06,60.45v5.11H53.9a2.56,2.56,0,1,1,0-5.11C59,60.44,64,60.45,69.06,60.45Z"/><path class="cls-3" d="M112.37,125.77H46.71A12.49,12.49,0,0,1,34.24,113.3V68.7L50.55,56.36a1.5,1.5,0,1,1,1.81,2.39L37.24,70.19V113.3a9.48,9.48,0,0,0,9.47,9.47h65.66a9.48,9.48,0,0,0,9.47-9.47V70.36L106.9,58.74a1.5,1.5,0,0,1,1.84-2.37l16.1,12.52V113.3A12.49,12.49,0,0,1,112.37,125.77Z"/></g></svg>