<svg xmlns="http://www.w3.org/2000/svg" viewBox="0 0 150 150"><defs><style>.cls-1{fill:#ffc000;}.cls-2{fill:#232323;}</style></defs><g id="Layer_3" data-name="Layer 3"><path class="cls-1" d="M96.72,56.58C94.84,45.49,88.53,38,78,34A29.55,29.55,0,0,0,71.6,32.6H66.35c-.12,0-.23.07-.35.09a28,28,0,0,0-24.38,34,53.88,53.88,0,0,0,6.64,15.54A126.76,126.76,0,0,0,67.7,106.54c1,1,1.5,1,2.55,0A135.25,135.25,0,0,0,84.9,89.48a77.86,77.86,0,0,0,9.37-16.33C96.42,67.83,97.7,62.35,96.72,56.58ZM69,67.14a6.56,6.56,0,1,1,6.55-6.55A6.56,6.56,0,0,1,69,67.14Z"/><path class="cls-2" d="M104.74,64.91c-1.95-11.53-8.56-19.5-19.63-23.71a31.07,31.07,0,0,0-6.76-1.51H72.89l-.59.11A29.53,29.53,0,0,0,46.7,75.63a54.66,54.66,0,0,0,6.82,16,127.72,127.72,0,0,0,19.66,24.58,3.41,3.41,0,0,0,2.33,1.22,3.51,3.51,0,0,0,2.34-1.21A138.14,138.14,0,0,0,92.66,98.94a78.8,78.8,0,0,0,9.54-16.65C104.84,75.77,105.65,70.24,104.74,64.91ZM99.42,81.16a75.07,75.07,0,0,1-9.2,16,134.42,134.42,0,0,1-14.48,16.87,2,2,0,0,1-.23.21l-.21-.2a125.24,125.24,0,0,1-19.21-24A52,52,0,0,1,49.62,75a26.54,26.54,0,0,1,23.17-32.2l.31-.07H78a27.39,27.39,0,0,1,18,9.52,27.34,27.34,0,0,1,5.73,13.21C102.59,70.17,101.84,75.18,99.42,81.16Z"/><path class="cls-2" d="M83.58,69.17a8.06,8.06,0,1,1-8-8.06A8.06,8.06,0,0,1,83.58,69.17Z"/></g></svg>